<svg width="128" height="128" viewBox="0 0 128 128" fill="none" xmlns="http://www.w3.org/2000/svg">
<path d="M48 8C32.5781 8 20 20.5781 20 36C20 45.6406 24.9219 54.2031 32.375 59.25C18.1094 65.375 8 79.5312 8 96H16C16 78.2812 30.2813 64 48 64C53.5 64 58.625 65.4375 63.125 67.875C58.6875 73.375 56 80.4062 56 88C56 105.625 70.375 120 88 120C105.625 120 120 105.625 120 88C120 70.375 105.625 56 88 56C81.0156 56 74.5156 58.2969 69.25 62.125C67.4844 61.0156 65.5625 60.0781 63.625 59.25C71.0781 54.2031 76 45.6406 76 36C76 20.5781 63.4219 8 48 8ZM48 16C59.0938 16 68 24.9063 68 36C68 47.0938 59.0938 56 48 56C36.9063 56 28 47.0938 28 36C28 24.9063 36.9063 16 48 16ZM88 64C101.297 64 112 74.7031 112 88C112 101.297 101.297 112 88 112C74.7031 112 64 101.297 64 88C64 74.7031 74.7031 64 88 64ZM101.125 77.125L88 90.25L78.875 81.125L73.125 86.875L85.125 98.875L88 101.625L90.875 98.875L106.875 82.875L101.125 77.125Z" fill="url(#paint0_linear_919_77)"/>
<defs>
<linearGradient id="paint0_linear_919_77" x1="120" y1="64" x2="8" y2="64" gradientUnits="userSpaceOnUse">
<stop stop-color="#48C0E0"/>
<stop offset="1" stop-color="#48E0B0"/>
</linearGradient>
</defs>
</svg>
