<svg width="32" height="32" viewBox="0 0 32 32" fill="none" xmlns="http://www.w3.org/2000/svg">
<path d="M22.625 3.03126C22.3047 3.06251 21.9766 3.14845 21.6563 3.28126V3.25001C21.6407 3.25392 21.6094 3.27736 21.5938 3.28126C19.1602 4.13673 14.5 6.28126 10.2813 10.5C6.03128 14.75 3.9805 19.4961 3.06253 21.8438V21.875C2.65628 23.0899 2.94535 24.4063 3.75003 25.3438L3.78128 25.375V25.4063L6.78128 28.375L6.90628 28.5C7.73441 29.3281 9.17191 29.3281 10 28.5L14.0938 24.4063C14.9219 23.5781 14.9219 22.1094 14.0938 21.2813L12.125 19.3125C12.4688 18.5977 13.3594 16.8399 14.9375 15.1875C16.5039 13.5469 18.3008 12.711 19 12.4063L21.0625 14.4688L21.1563 14.5313C21.625 14.8438 22.1602 15.0195 22.7188 15C23.2422 14.9805 23.7852 14.7227 24.1875 14.2813L24.2188 14.3125L24.2813 14.2188L28.3125 10.2188C29.1407 9.39064 29.1407 7.92189 28.3125 7.09376L25.2188 4.00001C24.7813 3.56251 24.1914 3.23439 23.5625 3.09376C23.2578 3.02736 22.9453 3.00001 22.625 3.03126ZM22.7813 5.03126C23.1602 5.00392 23.5391 5.16407 23.7813 5.40626L26.9063 8.50001C27.0782 8.67189 27.0782 8.60939 26.9063 8.78126L22.7188 12.9688C22.7227 12.9649 22.7188 12.9961 22.625 13C22.5469 13.0039 22.4297 12.9375 22.3125 12.875H22.25L19.9063 10.5L19.4375 10.0313L18.8438 10.25C18.8438 10.25 15.7696 11.3985 13.4688 13.8125C11.2071 16.1797 9.96878 19.0938 9.96878 19.0938L9.71878 19.7188L10.1875 20.2188L12.6875 22.7188C12.8594 22.8906 12.8594 22.8281 12.6875 23L8.59378 27.0938C8.42191 27.2656 8.48441 27.2656 8.31253 27.0938L5.25003 24.0625C5.24222 24.0547 5.25785 24.0391 5.25003 24.0313L5.21878 24C4.87113 23.5664 4.76566 23.1055 4.93753 22.5625C4.94144 22.5508 4.93363 22.543 4.93753 22.5313C5.82425 20.2735 7.77738 15.8477 11.7188 11.9063C15.6758 7.94923 20.1641 5.91407 22.3438 5.15626L22.375 5.12501H22.4063C22.5274 5.07032 22.6563 5.03907 22.7813 5.03126Z" fill="black"/>
</svg>
